# xmcd
#
# Track frame offsets: 
#        150
#        11672
#        25582
#        39020
#        50547
#        62957
#        76935
#        90557
#        103027
#        115910
#        127272
#        139220
#        151157
#        164282
#        174620
#        185192
#        196150
#        206637
#        217215
#        229800
#        240342
#
# Disc length: 3376 seconds
#
# Revision: 4
# Processed by: cddbd v1.5.2PL0 Copyright (c) Steve Scherf et al.
# Submitted via: ExactAudioCopyFreeDBPlugin 1.0
#
DISCID=220d2e15
DTITLE=Willie Dixon - Willie Dixon:  The Big Three Trio
DYEAR=1990
DGENRE=Blues
TTITLE0=Big 3 Boogie
TTITLE1=If the Sea Was Whiskey
TTITLE2=I Ain't Gonna Be Your Monkey Man No More
TTITLE3=88 Boogie
TTITLE4=Money Tree Blues
TTITLE5=Big 3 Stomp
TTITLE6=Since My Baby's Been Gone
TTITLE7=Hard Notch Boogie Beat
TTITLE8=No One to Love Me
TTITLE9=Don't Let That Music Die
TTITLE10=It's All Over Now
TTITLE11=Tell That Woman
TTITLE12=Got You on My Mind
TTITLE13=Etiquette
TTITLE14=You Don't Love Me No More
TTITLE15=Come Here Baby
TTITLE16=O.C. Bounce
TTITLE17=Cool Kind Woman
TTITLE18=Juice-Head Bartender
TTITLE19=What Am I to Do
TTITLE20=Signifying Monkey
EXTD=
EXTT0=
EXTT1=
EXTT2=
EXTT3=
EXTT4=
EXTT5=
EXTT6=
EXTT7=
EXTT8=
EXTT9=
EXTT10=
EXTT11=
EXTT12=
EXTT13=
EXTT14=
EXTT15=
EXTT16=
EXTT17=
EXTT18=
EXTT19=
EXTT20=
PLAYORDER=
